<svg xmlns="http://www.w3.org/2000/svg" xmlns:xlink="http://www.w3.org/1999/xlink" width="500" zoomAndPan="magnify" viewBox="0 0 375 374.999991" height="500" preserveAspectRatio="xMidYMid meet" version="1.0"><defs><g/><clipPath id="8d986f3afd"><path d="M 275.226562 183 L 301 183 L 301 210 L 275.226562 210 Z M 275.226562 183 " clip-rule="nonzero"/></clipPath><clipPath id="aeeaf9df4d"><path d="M 304 152.824219 L 337.476562 152.824219 L 337.476562 219.574219 L 304 219.574219 Z M 304 152.824219 " clip-rule="nonzero"/></clipPath><clipPath id="d0eae384ae"><path d="M 141.050781 122 L 171.800781 122 L 171.800781 152.648438 L 141.050781 152.648438 Z M 141.050781 122 " clip-rule="nonzero"/></clipPath><clipPath id="b162f37d01"><path d="M 141.050781 121.898438 L 171.800781 121.898438 L 171.800781 152.648438 L 141.050781 152.648438 Z M 141.050781 121.898438 " clip-rule="nonzero"/></clipPath><clipPath id="13c311d78e"><path d="M 141.050781 122 L 171.800781 122 L 171.800781 152.648438 L 141.050781 152.648438 Z M 141.050781 122 " clip-rule="nonzero"/></clipPath><clipPath id="e79f04b81a"><path d="M 141.050781 121.898438 L 171.800781 121.898438 L 171.800781 152.648438 L 141.050781 152.648438 Z M 141.050781 121.898438 " clip-rule="nonzero"/></clipPath></defs><path fill="#ffffff" d="M 288.582031 171.023438 L 288.414062 170.761719 C 288.46875 170.589844 288.695312 170.410156 288.695312 170.410156 L 288.863281 170.679688 C 288.679688 170.808594 288.582031 171.023438 288.582031 171.023438 Z M 290.667969 168.894531 L 290.914062 169.285156 L 290.734375 169.398438 L 290.488281 169.007812 Z M 292.535156 167.769531 L 292.730469 168.082031 C 291.945312 168.542969 291.296875 168.984375 291.296875 168.984375 L 291.097656 168.675781 C 291.667969 168.253906 292.535156 167.769531 292.535156 167.769531 Z M 293.144531 167.332031 L 293.390625 167.722656 L 293.210938 167.835938 L 292.964844 167.445312 Z M 295.574219 166.246094 L 295.742188 166.511719 C 295.742188 166.511719 295.503906 166.507812 295.308594 166.617188 L 295.136719 166.351562 C 295.136719 166.351562 295.398438 166.222656 295.574219 166.246094 Z M 292.046875 168.628906 L 292.085938 168.605469 C 293.605469 167.648438 294.902344 167.007812 295.726562 166.640625 C 295.84375 166.589844 295.972656 166.5625 296.097656 166.558594 L 295.796875 166.082031 C 295.648438 166.039062 295.484375 166.046875 295.339844 166.113281 C 294.523438 166.476562 293.242188 167.105469 291.738281 168.054688 L 291.703125 168.078125 C 290.195312 169.027344 289.074219 169.914062 288.394531 170.488281 C 288.273438 170.59375 288.195312 170.738281 288.167969 170.890625 L 288.46875 171.363281 C 288.527344 171.253906 288.605469 171.152344 288.707031 171.066406 C 289.390625 170.484375 290.527344 169.589844 292.046875 168.628906 Z M 292.636719 173.792969 L 294.089844 176.101562 C 294.226562 175.949219 294.375 175.824219 294.375 175.824219 L 292.675781 173.132812 C 292.675781 173.132812 292.425781 173.464844 292.636719 173.792969 Z M 312.292969 175.824219 C 312.292969 175.824219 312.441406 175.949219 312.578125 176.101562 L 314.03125 173.792969 C 314.238281 173.464844 313.988281 173.132812 313.988281 173.132812 Z M 304.496094 180.980469 L 304.457031 180.980469 C 304.46875 180.984375 304.480469 180.984375 304.492188 180.988281 Z M 310.894531 173.117188 C 310.640625 173.519531 310.75 174.042969 311.132812 174.316406 C 311.117188 174.308594 311.105469 174.300781 311.09375 174.292969 C 310.675781 174.03125 310.554688 173.480469 310.816406 173.070312 C 311.074219 172.652344 311.625 172.527344 312.039062 172.789062 C 312.050781 172.800781 312.0625 172.808594 312.078125 172.816406 C 311.667969 172.589844 311.144531 172.71875 310.894531 173.117188 Z M 312.082031 172.609375 C 311.609375 172.3125 310.972656 172.472656 310.65625 172.96875 C 310.34375 173.464844 310.472656 174.113281 310.949219 174.410156 C 311.421875 174.707031 312.058594 174.546875 312.371094 174.050781 C 312.6875 173.554688 312.554688 172.90625 312.082031 172.609375 Z M 310.160156 171.355469 L 308.707031 173.664062 C 308.90625 173.71875 309.078125 173.800781 309.078125 173.800781 L 310.777344 171.109375 C 310.777344 171.109375 310.371094 171.027344 310.160156 171.355469 Z M 295.890625 171.109375 L 297.585938 173.800781 C 297.585938 173.800781 297.761719 173.71875 297.957031 173.664062 L 296.503906 171.355469 C 296.296875 171.027344 295.890625 171.109375 295.890625 171.109375 Z M 318.085938 171.023438 C 318.085938 171.023438 317.984375 170.808594 317.800781 170.679688 L 317.972656 170.410156 C 317.972656 170.410156 318.199219 170.589844 318.253906 170.761719 Z M 315.929688 169.398438 L 315.753906 169.285156 L 316 168.894531 L 316.175781 169.007812 Z M 315.371094 168.984375 C 315.371094 168.984375 314.71875 168.542969 313.933594 168.082031 L 314.128906 167.769531 C 314.128906 167.769531 314.996094 168.253906 315.566406 168.675781 Z M 313.453125 167.835938 L 313.273438 167.722656 L 313.519531 167.332031 L 313.699219 167.445312 Z M 311.359375 166.617188 C 311.164062 166.507812 310.925781 166.511719 310.925781 166.511719 L 311.09375 166.246094 C 311.269531 166.222656 311.527344 166.351562 311.527344 166.351562 Z M 318.269531 170.488281 C 317.59375 169.914062 316.46875 169.027344 314.964844 168.078125 L 314.929688 168.054688 C 313.421875 167.105469 312.140625 166.476562 311.328125 166.113281 C 311.179688 166.046875 311.015625 166.039062 310.867188 166.082031 L 310.566406 166.558594 C 310.695312 166.5625 310.820312 166.589844 310.941406 166.640625 C 311.761719 167.007812 313.058594 167.648438 314.582031 168.605469 L 314.617188 168.628906 C 316.136719 169.589844 317.273438 170.484375 317.960938 171.066406 C 318.058594 171.152344 318.140625 171.253906 318.195312 171.363281 L 318.496094 170.890625 C 318.472656 170.738281 318.394531 170.59375 318.269531 170.488281 Z M 317.5625 171.855469 C 317.5625 171.855469 317.460938 171.640625 317.277344 171.511719 L 317.449219 171.242188 C 317.449219 171.242188 317.671875 171.421875 317.726562 171.589844 Z M 315.433594 170.1875 L 315.253906 170.074219 L 315.5 169.683594 L 315.679688 169.796875 Z M 314.867188 169.789062 C 314.867188 169.789062 314.214844 169.34375 313.429688 168.882812 L 313.625 168.570312 C 313.625 168.570312 314.492188 169.054688 315.0625 169.476562 Z M 312.957031 168.625 L 312.777344 168.511719 L 313.023438 168.121094 L 313.203125 168.234375 Z M 310.835938 167.449219 C 310.640625 167.339844 310.402344 167.34375 310.402344 167.34375 L 310.570312 167.078125 C 310.746094 167.054688 311.003906 167.179688 311.003906 167.179688 Z M 317.753906 171.308594 C 317.074219 170.730469 315.953125 169.847656 314.449219 168.898438 L 314.410156 168.875 C 312.90625 167.925781 311.625 167.296875 310.8125 166.933594 C 310.664062 166.867188 310.5 166.859375 310.351562 166.902344 L 310.050781 167.378906 C 310.175781 167.382812 310.304688 167.410156 310.421875 167.460938 C 311.246094 167.828125 312.542969 168.46875 314.0625 169.425781 L 314.101562 169.449219 C 315.621094 170.40625 316.757812 171.300781 317.441406 171.886719 C 317.542969 171.972656 317.621094 172.074219 317.679688 172.183594 L 317.980469 171.710938 C 317.953125 171.558594 317.878906 171.414062 317.753906 171.308594 Z M 295.574219 174.292969 C 295.5625 174.300781 295.546875 174.308594 295.535156 174.316406 C 295.917969 174.042969 296.023438 173.519531 295.773438 173.117188 C 295.519531 172.71875 295 172.589844 294.589844 172.816406 C 294.601562 172.808594 294.613281 172.800781 294.628906 172.789062 C 295.042969 172.527344 295.589844 172.652344 295.851562 173.070312 C 296.113281 173.480469 295.988281 174.03125 295.574219 174.292969 Z M 294.582031 172.609375 C 294.109375 172.90625 293.980469 173.554688 294.292969 174.050781 C 294.605469 174.546875 295.246094 174.707031 295.71875 174.410156 C 296.191406 174.113281 296.320312 173.464844 296.007812 172.96875 C 295.695312 172.472656 295.058594 172.3125 294.582031 172.609375 Z M 318.832031 169.839844 L 318.597656 170.210938 C 318.597656 170.210938 318.429688 169.957031 318.289062 169.910156 L 318.664062 169.3125 C 318.664062 169.3125 318.886719 169.496094 318.832031 169.839844 Z M 316.535156 168.441406 L 316.355469 168.328125 L 316.699219 167.78125 L 316.878906 167.894531 Z M 315.949219 168.070312 C 315.949219 168.070312 315.308594 167.609375 314.511719 167.164062 L 314.875 166.589844 C 314.875 166.589844 315.761719 167.039062 316.308594 167.496094 Z M 314.058594 166.878906 L 313.878906 166.765625 L 314.222656 166.222656 L 314.402344 166.335938 Z M 311.84375 165.847656 C 311.738281 165.738281 311.4375 165.699219 311.4375 165.699219 L 311.675781 165.324219 C 311.957031 165.128906 312.21875 165.25 312.21875 165.25 Z M 318.828125 169.128906 C 318.242188 168.632812 317.164062 167.773438 315.707031 166.855469 C 314.253906 165.9375 313.015625 165.335938 312.3125 165.023438 C 311.964844 164.867188 311.554688 164.992188 311.351562 165.316406 L 311.085938 165.738281 C 311.210938 165.742188 311.335938 165.769531 311.457031 165.820312 C 312.28125 166.1875 313.578125 166.828125 315.097656 167.785156 C 315.109375 167.792969 315.121094 167.800781 315.132812 167.808594 C 316.65625 168.769531 317.789062 169.664062 318.476562 170.246094 C 318.574219 170.332031 318.65625 170.433594 318.714844 170.546875 L 318.980469 170.125 C 319.183594 169.800781 319.117188 169.378906 318.828125 169.128906 Z M 289.105469 171.855469 L 288.9375 171.589844 C 288.992188 171.421875 289.21875 171.242188 289.21875 171.242188 L 289.386719 171.511719 C 289.207031 171.640625 289.105469 171.855469 289.105469 171.855469 Z M 291.164062 169.683594 L 291.410156 170.074219 L 291.230469 170.1875 L 290.984375 169.796875 Z M 293.039062 168.570312 L 293.238281 168.882812 C 292.449219 169.34375 291.800781 169.789062 291.800781 169.789062 L 291.605469 169.476562 C 292.171875 169.054688 293.039062 168.570312 293.039062 168.570312 Z M 293.640625 168.121094 L 293.886719 168.511719 L 293.707031 168.625 L 293.460938 168.234375 Z M 296.097656 167.078125 L 296.265625 167.34375 C 296.265625 167.34375 296.027344 167.339844 295.832031 167.449219 L 295.660156 167.179688 C 295.660156 167.179688 295.921875 167.054688 296.097656 167.078125 Z M 292.5625 169.449219 L 292.601562 169.425781 C 294.121094 168.46875 295.417969 167.828125 296.242188 167.460938 C 296.363281 167.410156 296.488281 167.382812 296.613281 167.378906 L 296.316406 166.902344 C 296.167969 166.859375 296.003906 166.867188 295.855469 166.933594 C 295.042969 167.296875 293.757812 167.925781 292.253906 168.875 L 292.21875 168.898438 C 290.710938 169.847656 289.589844 170.730469 288.914062 171.308594 C 288.789062 171.414062 288.710938 171.558594 288.6875 171.710938 L 288.984375 172.183594 C 289.042969 172.074219 289.125 171.972656 289.222656 171.886719 C 289.910156 171.300781 291.042969 170.40625 292.5625 169.449219 Z M 298.066406 173.757812 C 296.597656 174.304688 295.246094 175.15625 294.117188 176.25 C 294.097656 176.269531 294.078125 176.285156 294.058594 176.304688 L 292.492188 173.816406 C 292.308594 173.527344 292.394531 173.140625 292.6875 172.957031 L 295.714844 171.046875 C 296.007812 170.863281 296.390625 170.949219 296.574219 171.242188 L 298.144531 173.730469 C 298.117188 173.738281 298.09375 173.75 298.066406 173.757812 Z M 292.585938 177.378906 L 289.476562 172.445312 C 289.476562 172.445312 289.527344 172.21875 289.746094 172.078125 L 293.054688 177.332031 C 293.054688 177.332031 292.761719 177.65625 292.585938 177.378906 Z M 291.773438 170.644531 L 292.996094 172.585938 L 292.816406 172.699219 L 291.59375 170.757812 Z M 293.652344 169.539062 L 294.839844 171.425781 L 293.402344 172.328125 L 292.214844 170.445312 C 292.871094 169.855469 293.652344 169.539062 293.652344 169.539062 Z M 294.25 169.085938 L 295.472656 171.027344 L 295.292969 171.140625 L 294.070312 169.199219 Z M 296.632812 167.929688 L 299.746094 172.863281 C 299.921875 173.144531 299.5 173.269531 299.5 173.269531 L 296.1875 168.015625 C 296.40625 167.878906 296.632812 167.929688 296.632812 167.929688 Z M 298.269531 173.929688 C 298.523438 173.84375 298.730469 173.78125 298.886719 173.738281 C 299.105469 173.679688 299.316406 173.589844 299.507812 173.46875 L 300 173.15625 C 300.101562 173.09375 300.132812 172.960938 300.070312 172.859375 L 296.832031 167.722656 C 296.683594 167.679688 296.519531 167.683594 296.371094 167.75 C 295.558594 168.113281 294.277344 168.746094 292.773438 169.695312 L 292.753906 169.707031 C 291.238281 170.660156 290.109375 171.550781 289.429688 172.128906 C 289.304688 172.234375 289.226562 172.375 289.203125 172.527344 L 292.441406 177.664062 C 292.503906 177.765625 292.640625 177.796875 292.738281 177.734375 L 293.234375 177.421875 C 293.425781 177.300781 293.597656 177.152344 293.746094 176.980469 C 293.851562 176.859375 293.996094 176.695312 294.1875 176.503906 C 294.203125 176.484375 294.222656 176.46875 294.242188 176.449219 C 295.355469 175.335938 296.707031 174.480469 298.191406 173.957031 C 298.21875 173.949219 298.246094 173.9375 298.269531 173.929688 Z M 288.066406 170.210938 L 287.832031 169.839844 C 287.777344 169.496094 288.003906 169.3125 288.003906 169.3125 L 288.378906 169.910156 C 288.234375 169.957031 288.066406 170.210938 288.066406 170.210938 Z M 289.96875 167.78125 L 290.308594 168.328125 L 290.132812 168.441406 L 289.789062 167.894531 Z M 291.792969 166.589844 L 292.15625 167.164062 C 291.355469 167.609375 290.71875 168.070312 290.71875 168.070312 L 290.355469 167.496094 C 290.902344 167.039062 291.792969 166.589844 291.792969 166.589844 Z M 292.445312 166.222656 L 292.789062 166.765625 L 292.609375 166.878906 L 292.265625 166.335938 Z M 294.992188 165.324219 L 295.226562 165.699219 C 295.226562 165.699219 294.925781 165.738281 294.820312 165.847656 L 294.445312 165.25 C 294.445312 165.25 294.707031 165.128906 294.992188 165.324219 Z M 291.53125 167.808594 C 291.542969 167.800781 291.554688 167.792969 291.566406 167.785156 C 293.089844 166.828125 294.386719 166.1875 295.207031 165.820312 C 295.328125 165.769531 295.453125 165.742188 295.582031 165.738281 L 295.3125 165.316406 C 295.109375 164.992188 294.699219 164.867188 294.351562 165.023438 C 293.652344 165.335938 292.414062 165.9375 290.957031 166.855469 C 289.5 167.773438 288.425781 168.632812 287.839844 169.128906 C 287.546875 169.378906 287.484375 169.800781 287.6875 170.125 L 287.953125 170.546875 C 288.011719 170.433594 288.089844 170.332031 288.191406 170.246094 C 288.875 169.664062 290.011719 168.769531 291.53125 167.808594 Z M 297.265625 176.867188 C 296.988281 177.042969 296.90625 177.414062 297.082031 177.691406 L 297.371094 178.152344 L 298.78125 178.152344 L 298.089844 177.054688 C 297.914062 176.773438 297.546875 176.691406 297.265625 176.867188 Z M 310.457031 175.199219 C 310.453125 175.199219 310.453125 175.199219 310.453125 175.195312 C 309.960938 174.890625 309.445312 174.621094 308.910156 174.402344 C 308.796875 174.847656 308.617188 175.28125 308.367188 175.675781 L 306.8125 178.152344 L 307.632812 178.152344 L 308.394531 176.941406 C 308.632812 176.5625 309.132812 176.449219 309.511719 176.6875 C 309.890625 176.925781 310.003906 177.425781 309.765625 177.804688 L 309.546875 178.152344 C 309.570312 178.152344 309.582031 178.152344 309.582031 178.152344 C 309.839844 178.152344 310.097656 178.167969 310.351562 178.199219 L 310.925781 177.289062 C 311.179688 176.894531 311.488281 176.546875 311.84375 176.25 C 311.414062 175.863281 310.949219 175.511719 310.460938 175.203125 C 310.460938 175.203125 310.457031 175.203125 310.457031 175.199219 Z M 314.082031 177.378906 C 313.90625 177.65625 313.609375 177.332031 313.609375 177.332031 L 316.921875 172.078125 C 317.140625 172.21875 317.191406 172.445312 317.191406 172.445312 Z M 312.605469 176.304688 C 312.585938 176.285156 312.570312 176.269531 312.550781 176.25 C 311.421875 175.15625 310.070312 174.304688 308.597656 173.757812 C 308.574219 173.75 308.546875 173.738281 308.523438 173.730469 L 310.089844 171.242188 C 310.273438 170.949219 310.660156 170.863281 310.949219 171.046875 L 313.980469 172.957031 C 314.273438 173.140625 314.359375 173.527344 314.175781 173.816406 Z M 307.167969 173.269531 C 307.167969 173.269531 306.746094 173.144531 306.921875 172.863281 L 310.03125 167.929688 C 310.03125 167.929688 310.257812 167.878906 310.476562 168.015625 Z M 312.417969 169.085938 L 312.597656 169.199219 L 311.371094 171.140625 L 311.191406 171.027344 Z M 314.449219 170.445312 L 313.261719 172.328125 L 311.824219 171.425781 L 313.015625 169.539062 C 313.015625 169.539062 313.792969 169.855469 314.449219 170.445312 Z M 315.074219 170.757812 L 313.847656 172.699219 L 313.671875 172.585938 L 314.894531 170.644531 Z M 317.238281 172.128906 C 316.554688 171.550781 315.429688 170.660156 313.914062 169.707031 L 313.894531 169.695312 C 312.390625 168.746094 311.105469 168.113281 310.292969 167.75 C 310.148438 167.683594 309.984375 167.679688 309.835938 167.722656 L 306.597656 172.859375 C 306.535156 172.960938 306.5625 173.09375 306.664062 173.15625 L 307.15625 173.46875 C 307.351562 173.589844 307.558594 173.679688 307.78125 173.738281 C 307.933594 173.78125 308.144531 173.84375 308.394531 173.929688 C 308.421875 173.9375 308.445312 173.949219 308.472656 173.957031 C 309.957031 174.480469 311.308594 175.335938 312.421875 176.449219 C 312.441406 176.46875 312.460938 176.484375 312.480469 176.503906 C 312.667969 176.695312 312.8125 176.859375 312.917969 176.980469 C 313.066406 177.152344 313.238281 177.300781 313.433594 177.421875 L 313.925781 177.734375 C 314.027344 177.796875 314.160156 177.765625 314.226562 177.664062 L 317.460938 172.527344 C 317.4375 172.375 317.359375 172.234375 317.238281 172.128906 Z M 299.851562 178.152344 L 298.296875 175.675781 C 298.046875 175.28125 297.867188 174.847656 297.753906 174.402344 C 297.21875 174.621094 296.703125 174.890625 296.214844 175.195312 C 296.210938 175.199219 296.210938 175.199219 296.210938 175.199219 C 296.207031 175.203125 296.207031 175.203125 296.203125 175.203125 C 295.714844 175.511719 295.25 175.863281 294.820312 176.25 C 295.175781 176.546875 295.488281 176.894531 295.738281 177.289062 L 296.3125 178.199219 C 296.566406 178.167969 296.824219 178.152344 297.085938 178.152344 L 297.121094 178.152344 L 296.902344 177.804688 C 296.664062 177.425781 296.777344 176.925781 297.152344 176.6875 C 297.53125 176.449219 298.03125 176.5625 298.269531 176.941406 L 299.03125 178.152344 Z M 309.398438 176.867188 C 309.121094 176.691406 308.75 176.773438 308.574219 177.054688 L 307.882812 178.152344 L 309.296875 178.152344 L 309.585938 177.691406 C 309.761719 177.414062 309.679688 177.042969 309.398438 176.867188 " fill-opacity="1" fill-rule="nonzero"/><g clip-path="url(#8d986f3afd)"><path fill="#ffffff" d="M 300.964844 196.0625 C 300.949219 196.042969 300.941406 196.027344 300.925781 196.007812 L 299.949219 195.570312 C 299.9375 195.554688 299.925781 195.539062 299.914062 195.519531 C 299.863281 194.945312 299.773438 194.382812 299.648438 193.832031 C 299.65625 193.8125 299.660156 193.796875 299.667969 193.773438 L 300.460938 193.058594 C 300.480469 193.042969 300.488281 193.019531 300.480469 192.996094 C 300.394531 192.695312 300.296875 192.402344 300.191406 192.109375 C 300.183594 192.089844 300.164062 192.074219 300.140625 192.070312 L 299.078125 191.957031 C 299.054688 191.957031 299.035156 191.941406 299.027344 191.921875 C 298.804688 191.394531 298.542969 190.882812 298.25 190.398438 C 298.238281 190.378906 298.238281 190.355469 298.25 190.339844 L 298.785156 189.410156 C 298.792969 189.390625 298.792969 189.363281 298.78125 189.34375 C 298.605469 189.085938 298.425781 188.835938 298.234375 188.589844 C 298.210938 188.582031 298.191406 188.578125 298.171875 188.570312 L 297.125 188.792969 C 297.101562 188.785156 297.085938 188.777344 297.066406 188.773438 C 296.691406 188.339844 296.289062 187.9375 295.859375 187.566406 C 295.851562 187.542969 295.84375 187.527344 295.839844 187.507812 L 296.0625 186.457031 C 296.066406 186.4375 296.058594 186.410156 296.039062 186.398438 C 295.792969 186.207031 295.542969 186.023438 295.285156 185.847656 C 295.265625 185.835938 295.242188 185.835938 295.21875 185.847656 L 294.292969 186.378906 C 294.273438 186.390625 294.25 186.390625 294.230469 186.378906 C 293.746094 186.085938 293.234375 185.824219 292.707031 185.601562 C 292.6875 185.59375 292.671875 185.574219 292.671875 185.554688 L 292.558594 184.488281 C 292.554688 184.464844 292.542969 184.445312 292.519531 184.4375 C 292.230469 184.332031 291.933594 184.234375 291.632812 184.148438 C 291.613281 184.144531 291.585938 184.152344 291.570312 184.167969 L 290.855469 184.964844 C 290.835938 184.96875 290.816406 184.976562 290.796875 184.980469 C 290.246094 184.855469 289.683594 184.765625 289.109375 184.71875 C 289.089844 184.703125 289.078125 184.695312 289.058594 184.679688 L 288.621094 183.703125 C 288.601562 183.691406 288.585938 183.679688 288.566406 183.667969 C 288.414062 183.660156 288.257812 183.660156 288.101562 183.660156 C 287.945312 183.660156 287.789062 183.660156 287.632812 183.667969 C 287.613281 183.679688 287.601562 183.691406 287.582031 183.703125 L 287.144531 184.679688 C 287.125 184.695312 287.113281 184.703125 287.09375 184.71875 C 286.519531 184.765625 285.953125 184.855469 285.40625 184.980469 C 285.386719 184.976562 285.367188 184.96875 285.347656 184.964844 L 284.628906 184.167969 C 284.613281 184.152344 284.589844 184.144531 284.570312 184.148438 C 284.269531 184.234375 283.972656 184.332031 283.683594 184.4375 C 283.660156 184.445312 283.644531 184.464844 283.644531 184.488281 L 283.53125 185.554688 C 283.527344 185.574219 283.515625 185.59375 283.496094 185.601562 C 282.964844 185.824219 282.457031 186.085938 281.972656 186.378906 C 281.953125 186.390625 281.929688 186.390625 281.910156 186.378906 L 280.984375 185.847656 C 280.960938 185.835938 280.9375 185.835938 280.917969 185.847656 C 280.660156 186.023438 280.40625 186.207031 280.164062 186.398438 C 280.144531 186.410156 280.136719 186.4375 280.140625 186.457031 L 280.363281 187.507812 C 280.355469 187.527344 280.351562 187.542969 280.34375 187.566406 C 279.914062 187.9375 279.511719 188.339844 279.136719 188.773438 C 279.117188 188.777344 279.097656 188.785156 279.078125 188.792969 L 278.03125 188.570312 C 278.007812 188.578125 277.992188 188.582031 277.96875 188.589844 C 277.777344 188.835938 277.59375 189.085938 277.421875 189.34375 C 277.421875 189.367188 277.421875 189.386719 277.417969 189.410156 L 277.953125 190.335938 C 277.964844 190.355469 277.964844 190.378906 277.953125 190.398438 C 277.660156 190.882812 277.398438 191.394531 277.175781 191.921875 C 277.15625 191.933594 277.144531 191.945312 277.125 191.957031 L 276.0625 192.070312 C 276.039062 192.074219 276.019531 192.089844 276.011719 192.109375 C 275.902344 192.402344 275.808594 192.695312 275.722656 192.996094 C 275.714844 193.019531 275.722656 193.042969 275.742188 193.058594 L 276.535156 193.773438 C 276.542969 193.796875 276.546875 193.8125 276.554688 193.832031 C 276.425781 194.382812 276.339844 194.945312 276.289062 195.519531 C 276.277344 195.539062 276.265625 195.554688 276.253906 195.570312 L 275.277344 196.007812 C 275.261719 196.027344 275.253906 196.042969 275.238281 196.0625 C 275.234375 196.21875 275.230469 196.371094 275.230469 196.527344 C 275.230469 196.683594 275.234375 196.839844 275.238281 196.996094 C 275.253906 197.015625 275.261719 197.03125 275.277344 197.050781 L 276.253906 197.484375 C 276.265625 197.503906 276.277344 197.519531 276.289062 197.535156 C 276.339844 198.113281 276.425781 198.675781 276.554688 199.222656 C 276.546875 199.246094 276.542969 199.261719 276.535156 199.28125 L 275.742188 200 C 275.722656 200.015625 275.714844 200.039062 275.722656 200.0625 C 275.808594 200.359375 275.902344 200.65625 276.011719 200.945312 C 276.027344 200.960938 276.042969 200.972656 276.0625 200.984375 L 277.125 201.097656 C 277.144531 201.113281 277.15625 201.121094 277.175781 201.136719 C 277.398438 201.664062 277.65625 202.171875 277.953125 202.660156 C 277.964844 202.675781 277.964844 202.699219 277.953125 202.71875 L 277.417969 203.648438 C 277.40625 203.667969 277.410156 203.691406 277.421875 203.710938 C 277.59375 203.96875 277.777344 204.222656 277.96875 204.464844 C 277.984375 204.484375 278.007812 204.492188 278.03125 204.488281 L 279.027344 204.277344 C 278.992188 204.234375 278.96875 204.175781 278.96875 204.117188 L 278.96875 204.113281 C 278.96875 204.105469 278.96875 204.097656 278.964844 204.085938 C 278.960938 203.339844 279.183594 202.558594 279.582031 201.902344 C 278.609375 200.363281 278.039062 198.539062 278.027344 196.585938 C 278 191 282.574219 186.425781 288.160156 186.457031 C 293.675781 186.488281 298.144531 190.953125 298.171875 196.472656 C 298.203125 202.058594 293.628906 206.632812 288.042969 206.601562 C 287.308594 206.597656 286.589844 206.511719 285.898438 206.359375 C 285.839844 206.46875 285.78125 206.574219 285.714844 206.671875 C 285.710938 206.679688 285.710938 206.683594 285.707031 206.6875 C 285.683594 206.722656 285.660156 206.757812 285.640625 206.789062 C 285.429688 207.09375 285.183594 207.363281 284.902344 207.589844 C 284.84375 207.640625 284.777344 207.691406 284.707031 207.742188 C 284.308594 208.058594 283.917969 208.210938 283.613281 208.28125 L 283.644531 208.570312 C 283.644531 208.59375 283.660156 208.613281 283.683594 208.621094 C 283.972656 208.726562 284.269531 208.824219 284.566406 208.90625 C 284.589844 208.914062 284.613281 208.90625 284.628906 208.890625 L 285.347656 208.09375 C 285.367188 208.085938 285.386719 208.082031 285.40625 208.074219 C 285.953125 208.203125 286.519531 208.292969 287.09375 208.339844 C 287.113281 208.351562 287.125 208.363281 287.144531 208.375 L 287.582031 209.355469 C 287.601562 209.367188 287.613281 209.375 287.632812 209.390625 C 287.789062 209.394531 287.945312 209.398438 288.101562 209.398438 C 288.257812 209.398438 288.414062 209.394531 288.566406 209.390625 C 288.585938 209.375 288.601562 209.367188 288.621094 209.355469 L 289.058594 208.375 C 289.078125 208.363281 289.089844 208.351562 289.109375 208.339844 C 289.683594 208.292969 290.246094 208.203125 290.796875 208.074219 C 290.816406 208.082031 290.835938 208.085938 290.855469 208.09375 L 291.570312 208.890625 C 291.585938 208.90625 291.613281 208.914062 291.632812 208.90625 C 291.933594 208.824219 292.230469 208.726562 292.519531 208.621094 C 292.542969 208.613281 292.554688 208.59375 292.558594 208.570312 L 292.671875 207.503906 C 292.671875 207.480469 292.6875 207.460938 292.707031 207.453125 C 293.234375 207.230469 293.746094 206.972656 294.230469 206.675781 C 294.25 206.667969 294.273438 206.667969 294.292969 206.675781 L 295.21875 207.210938 C 295.242188 207.222656 295.265625 207.222656 295.285156 207.207031 C 295.542969 207.035156 295.792969 206.851562 296.039062 206.660156 C 296.058594 206.644531 296.066406 206.621094 296.0625 206.597656 L 295.839844 205.550781 C 295.84375 205.53125 295.851562 205.515625 295.859375 205.492188 C 296.289062 205.121094 296.691406 204.714844 297.066406 204.285156 C 297.085938 204.277344 297.101562 204.273438 297.125 204.265625 L 298.171875 204.488281 C 298.195312 204.492188 298.21875 204.484375 298.234375 204.464844 C 298.425781 204.222656 298.605469 203.96875 298.78125 203.710938 C 298.792969 203.691406 298.792969 203.667969 298.785156 203.648438 L 298.25 202.71875 C 298.238281 202.699219 298.238281 202.675781 298.25 202.660156 C 298.542969 202.171875 298.804688 201.664062 299.027344 201.136719 C 299.035156 201.113281 299.054688 201.101562 299.078125 201.097656 L 300.140625 200.984375 C 300.164062 200.984375 300.183594 200.96875 300.191406 200.945312 C 300.296875 200.65625 300.394531 200.359375 300.480469 200.0625 C 300.488281 200.039062 300.480469 200.015625 300.460938 200 L 299.667969 199.28125 C 299.660156 199.261719 299.65625 199.246094 299.648438 199.222656 C 299.773438 198.675781 299.863281 198.113281 299.914062 197.535156 C 299.925781 197.519531 299.9375 197.503906 299.949219 197.484375 L 300.925781 197.050781 C 300.941406 197.03125 300.949219 197.015625 300.964844 196.996094 C 300.96875 196.839844 300.972656 196.683594 300.972656 196.527344 C 300.972656 196.371094 300.96875 196.21875 300.964844 196.0625 " fill-opacity="1" fill-rule="nonzero"/></g><path fill="#ffffff" d="M 315.972656 195.082031 L 313.539062 195.082031 C 313.1875 195.082031 312.863281 194.882812 312.707031 194.566406 L 312.464844 194.082031 C 312.214844 193.578125 312.503906 192.976562 313.054688 192.859375 L 315.796875 192.289062 C 316.375 192.167969 316.917969 192.609375 316.917969 193.199219 L 316.917969 194.136719 C 316.917969 194.660156 316.496094 195.082031 315.972656 195.082031 Z M 320.804688 186.636719 L 320.804688 185.699219 C 320.804688 185.105469 320.261719 184.664062 319.683594 184.785156 L 317.015625 185.339844 L 314.234375 181.15625 C 313.195312 179.597656 311.457031 178.664062 309.582031 178.664062 L 297.085938 178.664062 C 295.210938 178.664062 293.46875 179.597656 292.429688 181.15625 L 290.40625 184.203125 C 290.46875 184.214844 290.527344 184.226562 290.589844 184.238281 L 291.0625 183.710938 C 291.203125 183.550781 291.40625 183.464844 291.617188 183.464844 C 291.6875 183.464844 291.753906 183.472656 291.820312 183.492188 C 292.132812 183.582031 292.449219 183.683594 292.753906 183.792969 C 292.777344 183.804688 292.800781 183.8125 292.824219 183.824219 L 293.933594 182.15625 C 294.636719 181.097656 295.816406 180.46875 297.085938 180.46875 L 309.582031 180.46875 C 310.851562 180.46875 312.03125 181.097656 312.734375 182.15625 L 316.773438 188.234375 C 317.148438 188.796875 316.746094 189.550781 316.070312 189.550781 L 299.457031 189.550781 C 299.441406 189.621094 299.414062 189.6875 299.375 189.75 L 299.023438 190.367188 C 299.199219 190.675781 299.359375 190.992188 299.507812 191.316406 L 300.214844 191.390625 C 300.492188 191.417969 300.738281 191.609375 300.835938 191.875 C 300.949219 192.179688 301.050781 192.496094 301.136719 192.808594 C 301.214844 193.078125 301.128906 193.378906 300.917969 193.566406 L 300.394531 194.042969 C 300.464844 194.386719 300.519531 194.742188 300.558594 195.09375 L 301.207031 195.382812 C 301.324219 195.433594 301.421875 195.519531 301.492188 195.625 L 301.53125 195.679688 C 301.601562 195.785156 301.640625 195.910156 301.648438 196.039062 C 301.652344 196.203125 301.65625 196.367188 301.65625 196.527344 C 301.65625 196.691406 301.652344 196.855469 301.648438 197.019531 C 301.644531 197.085938 301.632812 197.148438 301.613281 197.207031 L 309.855469 197.207031 C 310.089844 197.207031 310.277344 197.398438 310.277344 197.632812 C 310.277344 197.863281 310.089844 198.054688 309.855469 198.054688 L 300.546875 198.054688 C 300.507812 198.367188 300.460938 198.675781 300.398438 198.984375 L 309.855469 198.984375 C 310.089844 198.984375 310.277344 199.171875 310.277344 199.40625 C 310.277344 199.640625 310.089844 199.828125 309.855469 199.828125 L 301.132812 199.828125 C 301.175781 199.964844 301.179688 200.109375 301.136719 200.25 C 301.050781 200.5625 300.949219 200.875 300.835938 201.179688 C 300.828125 201.199219 300.820312 201.21875 300.8125 201.238281 L 314.664062 201.238281 L 314.664062 203.527344 C 314.664062 203.53125 314.664062 203.535156 314.664062 203.539062 C 314.667969 203.992188 315.046875 204.347656 315.496094 204.347656 L 319.058594 204.347656 C 319.511719 204.347656 319.890625 203.992188 319.894531 203.539062 C 319.894531 203.535156 319.894531 203.53125 319.894531 203.527344 L 319.894531 192.320312 C 319.894531 190.640625 319.410156 188.992188 318.503906 187.578125 L 319.859375 187.578125 C 320.382812 187.578125 320.804688 187.15625 320.804688 186.636719 " fill-opacity="1" fill-rule="nonzero"/><path fill="#ffffff" d="M 287.542969 193.921875 L 288.289062 194.457031 L 288.671875 193.921875 C 288.863281 193.648438 288.800781 193.269531 288.527344 193.074219 C 288.253906 192.878906 287.875 192.945312 287.683594 193.21875 L 287.285156 193.773438 C 287.375 193.816406 287.460938 193.863281 287.542969 193.921875 Z M 286.738281 199.484375 C 286.730469 199.488281 286.714844 199.496094 286.703125 199.503906 C 286.6875 199.515625 286.671875 199.523438 286.652344 199.535156 C 286.636719 199.546875 286.617188 199.5625 286.597656 199.578125 C 286.578125 199.597656 286.558594 199.613281 286.535156 199.632812 C 286.527344 199.644531 286.515625 199.65625 286.503906 199.667969 C 286.492188 199.679688 286.484375 199.691406 286.472656 199.703125 C 286.46875 199.710938 286.460938 199.714844 286.457031 199.722656 C 286.453125 199.730469 286.445312 199.734375 286.441406 199.742188 C 286.429688 199.757812 286.417969 199.769531 286.410156 199.785156 C 286.367188 199.84375 286.328125 199.910156 286.292969 199.984375 C 286.253906 200.058594 286.222656 200.136719 286.195312 200.222656 C 286.179688 200.265625 286.164062 200.3125 286.152344 200.355469 C 286.140625 200.402344 286.128906 200.445312 286.117188 200.492188 C 286.089844 200.589844 286.066406 200.683594 286.042969 200.78125 C 286.019531 200.878906 285.992188 200.976562 285.960938 201.070312 C 285.945312 201.121094 285.925781 201.167969 285.90625 201.210938 C 285.886719 201.257812 285.867188 201.304688 285.84375 201.347656 C 285.835938 201.371094 285.820312 201.390625 285.808594 201.410156 L 285.800781 201.429688 L 285.792969 201.441406 C 285.785156 201.453125 285.78125 201.460938 285.773438 201.472656 C 285.761719 201.492188 285.746094 201.511719 285.734375 201.53125 C 285.71875 201.550781 285.707031 201.566406 285.695312 201.585938 C 285.636719 201.65625 285.578125 201.714844 285.519531 201.769531 C 285.464844 201.820312 285.40625 201.859375 285.355469 201.894531 C 285.300781 201.929688 285.253906 201.957031 285.214844 201.972656 C 285.195312 201.984375 285.175781 201.992188 285.160156 202 C 285.144531 202.003906 285.128906 202.011719 285.121094 202.015625 C 285.097656 202.023438 285.085938 202.027344 285.085938 202.027344 C 285.085938 202.027344 285.097656 202.019531 285.113281 202.007812 C 285.132812 201.992188 285.160156 201.972656 285.195312 201.945312 C 285.230469 201.917969 285.269531 201.882812 285.3125 201.84375 C 285.355469 201.800781 285.402344 201.753906 285.449219 201.699219 C 285.496094 201.640625 285.542969 201.578125 285.585938 201.507812 C 285.597656 201.492188 285.609375 201.472656 285.617188 201.457031 C 285.628906 201.4375 285.640625 201.421875 285.648438 201.402344 C 285.652344 201.390625 285.660156 201.378906 285.664062 201.371094 L 285.671875 201.355469 L 285.679688 201.34375 C 285.6875 201.320312 285.699219 201.304688 285.707031 201.28125 C 285.722656 201.242188 285.738281 201.199219 285.753906 201.15625 C 285.769531 201.109375 285.785156 201.066406 285.800781 201.019531 C 285.824219 200.929688 285.851562 200.835938 285.875 200.738281 C 285.898438 200.640625 285.925781 200.542969 285.953125 200.449219 C 285.964844 200.402344 285.980469 200.351562 285.996094 200.308594 C 286.011719 200.257812 286.03125 200.214844 286.050781 200.167969 C 286.085938 200.078125 286.132812 199.996094 286.179688 199.921875 C 286.226562 199.84375 286.277344 199.777344 286.332031 199.71875 C 286.386719 199.664062 286.441406 199.617188 286.496094 199.582031 C 286.507812 199.574219 286.519531 199.566406 286.53125 199.558594 C 286.546875 199.550781 286.558594 199.542969 286.570312 199.535156 C 286.59375 199.523438 286.617188 199.515625 286.636719 199.503906 C 286.660156 199.496094 286.675781 199.492188 286.695312 199.484375 C 286.710938 199.480469 286.722656 199.476562 286.734375 199.472656 C 286.757812 199.46875 286.769531 199.464844 286.769531 199.464844 C 286.769531 199.464844 286.761719 199.472656 286.738281 199.484375 Z M 290.101562 198.183594 C 289.859375 198.011719 289.773438 197.695312 289.875 197.429688 C 289.621094 197.597656 289.28125 197.597656 289.015625 197.414062 C 288.710938 197.195312 288.613281 196.789062 288.769531 196.460938 C 288.800781 196.394531 288.78125 196.316406 288.722656 196.273438 C 288.703125 196.277344 288.683594 196.285156 288.667969 196.289062 C 288.324219 196.394531 287.945312 196.304688 287.550781 196.019531 C 287.519531 196 287.492188 195.980469 287.464844 195.957031 C 287.410156 195.914062 287.355469 195.875 287.300781 195.835938 C 286.84375 195.511719 286.71875 195.5625 286.71875 195.5625 C 286.699219 195.582031 286.695312 195.691406 286.714844 195.769531 C 286.75 195.84375 286.910156 196.214844 287.035156 196.667969 C 287.0625 196.773438 287.085938 196.875 287.109375 196.972656 C 287.230469 197.617188 287.082031 198.019531 286.886719 198.265625 C 286.886719 198.226562 286.898438 198.191406 286.917969 198.15625 C 287.292969 197.410156 286.5625 195.820312 286.5625 195.820312 C 286.5625 195.820312 286.3125 194.867188 287.5625 195.835938 C 288.808594 196.800781 289.34375 195.398438 289.34375 195.398438 L 287.453125 194.050781 C 286.945312 193.691406 286.261719 193.722656 285.789062 194.128906 C 285.429688 194.4375 285.058594 194.789062 284.746094 195.152344 C 284.542969 195.390625 284.441406 195.699219 284.457031 196.015625 C 284.488281 196.488281 284.550781 197.242188 284.6875 197.914062 C 284.699219 197.957031 284.710938 198.015625 284.730469 198.082031 C 284.742188 198.125 284.753906 198.167969 284.769531 198.21875 C 284.773438 198.242188 284.78125 198.265625 284.789062 198.292969 C 284.800781 198.316406 284.808594 198.34375 284.816406 198.371094 C 284.820312 198.382812 284.824219 198.394531 284.828125 198.410156 C 284.832031 198.421875 284.839844 198.4375 284.84375 198.449219 C 284.851562 198.476562 284.863281 198.503906 284.871094 198.53125 C 284.890625 198.585938 284.914062 198.640625 284.9375 198.695312 C 284.945312 198.722656 284.957031 198.75 284.96875 198.777344 C 284.980469 198.804688 284.992188 198.832031 285.007812 198.855469 C 285.019531 198.882812 285.03125 198.910156 285.042969 198.933594 C 285.050781 198.945312 285.054688 198.960938 285.0625 198.972656 C 285.070312 198.984375 285.074219 198.996094 285.082031 199.007812 C 285.09375 199.035156 285.109375 199.058594 285.121094 199.082031 C 285.125 199.09375 285.132812 199.105469 285.140625 199.117188 C 285.144531 199.128906 285.152344 199.140625 285.160156 199.148438 C 285.171875 199.171875 285.183594 199.191406 285.195312 199.214844 C 285.210938 199.234375 285.222656 199.253906 285.234375 199.273438 C 285.257812 199.308594 285.28125 199.34375 285.304688 199.371094 C 285.3125 199.386719 285.324219 199.398438 285.335938 199.414062 C 285.34375 199.425781 285.351562 199.4375 285.359375 199.445312 C 285.394531 199.488281 285.414062 199.511719 285.414062 199.511719 C 285.414062 199.511719 285.390625 199.488281 285.355469 199.453125 C 285.34375 199.445312 285.335938 199.433594 285.324219 199.421875 C 285.3125 199.410156 285.296875 199.398438 285.285156 199.386719 C 285.261719 199.359375 285.234375 199.328125 285.207031 199.292969 C 285.191406 199.277344 285.175781 199.257812 285.160156 199.238281 C 285.148438 199.21875 285.128906 199.199219 285.113281 199.179688 C 285.105469 199.167969 285.097656 199.160156 285.089844 199.148438 C 285.082031 199.136719 285.074219 199.125 285.066406 199.113281 C 285.050781 199.09375 285.035156 199.070312 285.019531 199.046875 C 285.011719 199.035156 285.003906 199.023438 284.996094 199.011719 C 284.988281 199 284.980469 198.988281 284.972656 198.972656 C 284.957031 198.949219 284.941406 198.925781 284.925781 198.898438 C 284.910156 198.875 284.894531 198.847656 284.878906 198.824219 C 284.863281 198.796875 284.847656 198.769531 284.832031 198.746094 C 284.8125 198.707031 284.792969 198.671875 284.773438 198.632812 L 284.761719 198.648438 C 283.957031 199.628906 282.851562 200.074219 281.699219 200.515625 C 281.019531 200.777344 280.414062 201.207031 279.984375 201.800781 C 279.515625 202.445312 279.238281 203.28125 279.246094 204.085938 C 279.246094 204.089844 279.246094 204.097656 279.246094 204.105469 C 279.246094 204.097656 279.246094 204.089844 279.246094 204.082031 C 279.273438 204.007812 279.957031 202.25 281.976562 201.546875 C 282.011719 201.539062 282.042969 201.527344 282.074219 201.519531 C 282.183594 201.484375 282.304688 201.449219 282.425781 201.417969 C 282.707031 201.34375 283.003906 201.308594 283.257812 201.429688 C 283.621094 201.601562 283.558594 202.109375 283.441406 202.417969 C 282.894531 203.898438 280.695312 202.507812 279.371094 205.355469 C 278.121094 208.039062 279.988281 209.164062 277.917969 210.496094 C 277.792969 210.574219 277.664062 210.636719 277.523438 210.683594 C 277.425781 210.714844 277.320312 210.742188 277.210938 210.757812 C 277.210938 210.757812 277.453125 210.769531 277.796875 210.671875 C 277.800781 210.671875 277.808594 210.671875 277.8125 210.671875 C 277.839844 210.664062 277.871094 210.652344 277.90625 210.640625 C 278.128906 210.566406 278.382812 210.445312 278.640625 210.25 C 278.644531 210.246094 278.644531 210.246094 278.648438 210.246094 C 278.648438 210.242188 278.648438 210.242188 278.652344 210.242188 C 279.15625 209.859375 279.664062 209.183594 279.789062 208.015625 C 279.863281 207.34375 280.035156 206.414062 280.667969 205.984375 C 281.117188 205.683594 281.929688 205.664062 282.132812 206.195312 C 282.390625 206.886719 281.414062 208.121094 280.65625 208.257812 C 280.652344 208.257812 280.648438 208.257812 280.648438 208.257812 L 280.46875 208.265625 C 280.46875 208.265625 281.550781 208.675781 282.46875 207.769531 C 282.71875 207.542969 282.933594 207.273438 283.121094 207 C 283.386719 206.609375 283.59375 206.183594 283.777344 205.757812 C 283.941406 205.375 284.023438 204.753906 284.421875 204.53125 C 285.027344 204.195312 285.148438 205 285.15625 205.402344 C 285.175781 206.476562 284.382812 207.289062 283.839844 207.71875 C 283.617188 207.894531 283.351562 208.015625 283.070312 208.058594 C 283.066406 208.058594 283.066406 208.058594 283.0625 208.058594 C 283.0625 208.058594 283.78125 208.121094 284.535156 207.523438 C 284.601562 207.476562 284.664062 207.429688 284.726562 207.378906 C 284.988281 207.164062 285.21875 206.910156 285.410156 206.632812 C 285.433594 206.597656 285.453125 206.566406 285.476562 206.53125 C 285.476562 206.53125 285.480469 206.527344 285.480469 206.527344 C 285.6875 206.207031 285.84375 205.855469 285.957031 205.496094 C 286.121094 204.96875 286.199219 204.425781 286.21875 203.886719 C 286.21875 203.886719 286.21875 203.882812 286.21875 203.878906 C 286.269531 202.546875 287.421875 200.695312 288.78125 200.371094 C 289.148438 200.28125 289.480469 200.0625 289.707031 199.742188 L 290.796875 198.214844 C 290.585938 198.335938 290.3125 198.335938 290.101562 198.183594 Z M 282.746094 192.972656 C 282.773438 192.976562 282.8125 192.984375 282.867188 192.992188 C 282.890625 192.996094 282.921875 193 282.953125 193.003906 C 282.984375 193.007812 283.019531 193.007812 283.054688 193.011719 C 283.089844 193.011719 283.128906 193.011719 283.167969 193.011719 C 283.210938 193.011719 283.253906 193.007812 283.296875 193.003906 C 283.386719 193 283.480469 192.980469 283.582031 192.960938 C 283.628906 192.949219 283.679688 192.933594 283.730469 192.917969 C 283.78125 192.898438 283.832031 192.882812 283.882812 192.859375 C 283.984375 192.816406 284.082031 192.757812 284.183594 192.695312 C 284.207031 192.679688 284.230469 192.660156 284.253906 192.644531 L 284.289062 192.621094 L 284.320312 192.589844 L 284.386719 192.535156 L 284.453125 192.472656 C 284.496094 192.433594 284.53125 192.386719 284.570312 192.34375 C 284.605469 192.296875 284.644531 192.25 284.675781 192.203125 C 284.738281 192.105469 284.796875 192.007812 284.839844 191.90625 C 284.882812 191.804688 284.917969 191.703125 284.9375 191.601562 C 284.964844 191.503906 284.976562 191.410156 284.984375 191.320312 C 284.988281 191.296875 284.988281 191.277344 284.988281 191.253906 C 284.992188 191.234375 284.992188 191.210938 284.992188 191.191406 C 284.992188 191.152344 284.992188 191.113281 284.992188 191.074219 C 284.988281 191.039062 284.984375 191.003906 284.984375 190.972656 C 284.980469 190.941406 284.976562 190.914062 284.972656 190.886719 C 284.964844 190.835938 284.957031 190.796875 284.953125 190.765625 C 284.945312 190.738281 284.941406 190.722656 284.941406 190.722656 C 284.941406 190.722656 284.949219 190.738281 284.957031 190.765625 C 284.964844 190.792969 284.980469 190.832031 284.992188 190.882812 C 284.996094 190.910156 285.003906 190.9375 285.007812 190.96875 C 285.015625 191 285.023438 191.035156 285.023438 191.074219 C 285.027344 191.109375 285.035156 191.148438 285.035156 191.191406 C 285.039062 191.210938 285.039062 191.234375 285.039062 191.253906 C 285.039062 191.277344 285.039062 191.300781 285.039062 191.320312 C 285.039062 191.367188 285.035156 191.417969 285.03125 191.464844 C 285.023438 191.515625 285.019531 191.566406 285.007812 191.617188 C 284.988281 191.722656 284.957031 191.828125 284.914062 191.9375 C 284.871094 192.042969 284.816406 192.152344 284.75 192.253906 C 284.714844 192.308594 284.679688 192.351562 284.640625 192.402344 C 284.601562 192.445312 284.5625 192.496094 284.515625 192.539062 L 284.449219 192.601562 L 284.378906 192.660156 L 284.34375 192.691406 L 284.304688 192.71875 C 284.28125 192.738281 284.257812 192.753906 284.230469 192.773438 C 284.179688 192.800781 284.128906 192.835938 284.074219 192.863281 C 284.046875 192.875 284.023438 192.886719 283.996094 192.902344 C 283.96875 192.914062 283.941406 192.921875 283.914062 192.933594 C 283.863281 192.957031 283.804688 192.972656 283.753906 192.988281 C 283.699219 193.003906 283.648438 193.015625 283.597656 193.027344 C 283.492188 193.046875 283.390625 193.058594 283.300781 193.058594 C 283.253906 193.058594 283.210938 193.058594 283.167969 193.054688 C 283.128906 193.050781 283.085938 193.050781 283.050781 193.042969 C 283.015625 193.039062 282.980469 193.035156 282.949219 193.027344 C 282.917969 193.023438 282.886719 193.015625 282.863281 193.007812 C 282.835938 193.003906 282.8125 192.996094 282.792969 192.992188 C 282.773438 192.984375 282.757812 192.980469 282.746094 192.976562 C 282.71875 192.96875 282.703125 192.960938 282.703125 192.960938 C 282.703125 192.960938 282.71875 192.964844 282.746094 192.972656 Z M 283.039062 193.230469 C 283.703125 193.253906 284.34375 193.480469 284.863281 193.898438 L 285.363281 194.308594 C 285.46875 194.210938 285.578125 194.113281 285.691406 194.015625 C 285.722656 193.992188 285.75 193.96875 285.78125 193.945312 L 285.523438 193.734375 C 285.324219 193.574219 285.296875 193.28125 285.457031 193.082031 C 285.617188 192.886719 285.910156 192.855469 286.105469 193.015625 L 286.917969 193.675781 C 286.996094 193.6875 287.070312 193.707031 287.144531 193.730469 C 287.148438 193.714844 287.15625 193.703125 287.164062 193.6875 L 287.398438 193.363281 L 286.003906 192.230469 C 285.550781 191.863281 285.238281 191.351562 285.125 190.78125 C 285.078125 190.539062 284.988281 190.300781 284.851562 190.082031 C 284.53125 189.570312 284.027344 189.25 283.476562 189.148438 C 283.375 189.128906 283.300781 189.242188 283.355469 189.328125 L 283.757812 189.972656 C 284.101562 190.527344 283.953125 191.261719 283.40625 191.617188 C 282.847656 191.980469 282.101562 191.8125 281.746094 191.25 L 281.335938 190.589844 C 281.28125 190.503906 281.144531 190.523438 281.117188 190.621094 C 280.972656 191.148438 281.035156 191.730469 281.335938 192.234375 C 281.707031 192.851562 282.363281 193.207031 283.039062 193.230469 Z M 294.527344 198.363281 C 294.5 198.359375 294.460938 198.347656 294.40625 198.34375 C 294.382812 198.339844 294.351562 198.335938 294.320312 198.332031 C 294.289062 198.328125 294.257812 198.328125 294.21875 198.324219 C 294.183594 198.320312 294.144531 198.324219 294.105469 198.324219 C 294.0625 198.324219 294.019531 198.328125 293.976562 198.332031 C 293.886719 198.335938 293.792969 198.351562 293.691406 198.375 C 293.644531 198.386719 293.59375 198.402344 293.542969 198.417969 C 293.492188 198.4375 293.441406 198.453125 293.390625 198.476562 C 293.289062 198.515625 293.191406 198.578125 293.09375 198.636719 C 293.070312 198.65625 293.042969 198.671875 293.019531 198.6875 L 292.984375 198.714844 L 292.953125 198.742188 L 292.886719 198.800781 L 292.824219 198.863281 C 292.777344 198.902344 292.742188 198.949219 292.703125 198.992188 C 292.667969 199.035156 292.628906 199.085938 292.597656 199.132812 C 292.535156 199.226562 292.476562 199.328125 292.433594 199.429688 C 292.394531 199.53125 292.355469 199.632812 292.335938 199.730469 C 292.3125 199.832031 292.296875 199.925781 292.289062 200.015625 C 292.285156 200.039062 292.285156 200.058594 292.285156 200.082031 C 292.285156 200.101562 292.28125 200.121094 292.28125 200.144531 C 292.28125 200.183594 292.28125 200.222656 292.285156 200.257812 C 292.285156 200.296875 292.289062 200.328125 292.289062 200.359375 C 292.292969 200.390625 292.296875 200.421875 292.300781 200.445312 C 292.308594 200.5 292.316406 200.539062 292.320312 200.566406 C 292.328125 200.59375 292.332031 200.609375 292.332031 200.609375 C 292.332031 200.609375 292.324219 200.59375 292.316406 200.570312 C 292.308594 200.542969 292.292969 200.503906 292.285156 200.449219 C 292.277344 200.425781 292.269531 200.394531 292.265625 200.363281 C 292.257812 200.332031 292.253906 200.296875 292.25 200.261719 C 292.246094 200.226562 292.238281 200.183594 292.238281 200.144531 C 292.238281 200.125 292.234375 200.101562 292.234375 200.078125 C 292.234375 200.058594 292.234375 200.035156 292.234375 200.011719 C 292.234375 199.964844 292.238281 199.917969 292.242188 199.867188 C 292.25 199.820312 292.253906 199.769531 292.265625 199.71875 C 292.285156 199.613281 292.316406 199.503906 292.359375 199.398438 C 292.402344 199.289062 292.457031 199.183594 292.523438 199.082031 C 292.558594 199.027344 292.59375 198.984375 292.632812 198.933594 C 292.671875 198.886719 292.710938 198.839844 292.757812 198.796875 L 292.824219 198.730469 L 292.894531 198.671875 L 292.929688 198.644531 L 292.96875 198.617188 C 292.992188 198.597656 293.015625 198.582031 293.042969 198.5625 C 293.09375 198.53125 293.144531 198.496094 293.199219 198.472656 C 293.226562 198.460938 293.25 198.445312 293.277344 198.433594 C 293.304688 198.421875 293.332031 198.410156 293.359375 198.402344 C 293.410156 198.375 293.46875 198.363281 293.519531 198.34375 C 293.574219 198.332031 293.625 198.316406 293.679688 198.308594 C 293.78125 198.289062 293.882812 198.277344 293.972656 198.277344 C 294.019531 198.277344 294.0625 198.273438 294.105469 198.277344 C 294.148438 198.28125 294.1875 198.285156 294.222656 198.289062 C 294.257812 198.296875 294.292969 198.300781 294.324219 198.304688 C 294.355469 198.3125 294.386719 198.320312 294.410156 198.324219 C 294.4375 198.328125 294.460938 198.335938 294.480469 198.34375 C 294.5 198.351562 294.515625 198.355469 294.53125 198.359375 C 294.558594 198.367188 294.570312 198.371094 294.570312 198.371094 C 294.570312 198.371094 294.554688 198.371094 294.527344 198.363281 Z M 295.9375 199.101562 C 295.566406 198.480469 294.910156 198.128906 294.234375 198.105469 C 293.570312 198.082031 292.929688 197.855469 292.410156 197.433594 L 291.773438 196.917969 L 291.457031 197.363281 L 291.75 197.601562 C 291.949219 197.761719 291.980469 198.050781 291.816406 198.25 C 291.65625 198.449219 291.363281 198.480469 291.167969 198.320312 L 291 198.183594 L 290.683594 198.628906 L 291.269531 199.105469 C 291.722656 199.472656 292.035156 199.984375 292.148438 200.554688 C 292.195312 200.796875 292.285156 201.03125 292.421875 201.253906 C 292.742188 201.765625 293.25 202.085938 293.796875 202.1875 C 293.898438 202.207031 293.976562 202.09375 293.917969 202.003906 L 293.515625 201.363281 C 293.171875 200.808594 293.320312 200.070312 293.867188 199.714844 C 294.429688 199.351562 295.175781 199.519531 295.527344 200.082031 L 295.9375 200.742188 C 295.992188 200.832031 296.128906 200.8125 296.15625 200.710938 C 296.300781 200.1875 296.238281 199.605469 295.9375 199.101562 Z M 290.078125 197.386719 C 289.925781 197.601562 289.976562 197.902344 290.191406 198.054688 C 290.410156 198.210938 290.707031 198.160156 290.863281 197.941406 L 291.914062 196.464844 C 292.070312 196.246094 292.019531 195.945312 291.800781 195.792969 C 291.585938 195.640625 291.285156 195.691406 291.132812 195.90625 Z M 289.476562 195.300781 L 290.011719 194.550781 C 290.203125 194.277344 290.140625 193.898438 289.867188 193.707031 C 289.59375 193.511719 289.214844 193.574219 289.019531 193.847656 L 288.488281 194.597656 Z M 290.054688 194.90625 L 288.964844 196.4375 C 288.773438 196.710938 288.835938 197.089844 289.109375 197.285156 C 289.382812 197.476562 289.761719 197.414062 289.953125 197.140625 L 291.042969 195.613281 C 291.238281 195.339844 291.175781 194.957031 290.902344 194.765625 C 290.628906 194.570312 290.25 194.632812 290.054688 194.90625 " fill-opacity="1" fill-rule="nonzero"/><g clip-path="url(#aeeaf9df4d)"><path fill="#ffffff" d="M 304.117188 212.875 C 318.816406 212.875 330.78125 200.914062 330.78125 186.210938 C 330.78125 171.507812 318.816406 159.546875 304.117188 159.546875 L 304.117188 152.832031 C 304.519531 152.832031 304.925781 152.839844 305.324219 152.855469 C 305.375 152.886719 305.414062 152.914062 305.464844 152.949219 L 306.597656 155.484375 C 306.644531 155.515625 306.683594 155.542969 306.730469 155.574219 C 308.21875 155.699219 309.679688 155.933594 311.105469 156.265625 C 311.160156 156.246094 311.203125 156.234375 311.257812 156.214844 L 313.117188 154.152344 C 313.15625 154.105469 313.21875 154.089844 313.277344 154.105469 C 314.054688 154.328125 314.820312 154.574219 315.574219 154.851562 C 315.628906 154.871094 315.671875 154.921875 315.675781 154.984375 L 315.96875 157.746094 C 315.972656 157.800781 316.011719 157.851562 316.0625 157.875 C 317.433594 158.453125 318.753906 159.125 320.011719 159.886719 C 320.0625 159.917969 320.121094 159.917969 320.171875 159.890625 L 322.578125 158.507812 C 322.628906 158.476562 322.695312 158.476562 322.746094 158.511719 C 323.414062 158.960938 324.066406 159.4375 324.703125 159.933594 C 324.75 159.972656 324.769531 160.035156 324.757812 160.09375 L 324.179688 162.808594 C 324.199219 162.863281 324.214844 162.90625 324.234375 162.960938 C 325.351562 163.929688 326.398438 164.976562 327.363281 166.09375 C 327.417969 166.109375 327.460938 166.125 327.515625 166.144531 L 330.230469 165.566406 C 330.289062 165.585938 330.332031 165.601562 330.390625 165.625 C 330.886719 166.257812 331.363281 166.910156 331.8125 167.578125 C 331.816406 167.640625 331.816406 167.6875 331.820312 167.746094 L 330.433594 170.152344 C 330.40625 170.203125 330.40625 170.261719 330.4375 170.3125 C 331.199219 171.574219 331.871094 172.890625 332.449219 174.261719 C 332.496094 174.296875 332.535156 174.324219 332.578125 174.359375 L 335.339844 174.648438 C 335.402344 174.65625 335.453125 174.695312 335.472656 174.75 C 335.75 175.503906 335.996094 176.269531 336.21875 177.046875 C 336.234375 177.105469 336.21875 177.167969 336.171875 177.207031 L 334.109375 179.066406 C 334.089844 179.121094 334.078125 179.164062 334.058594 179.21875 C 334.390625 180.644531 334.625 182.105469 334.75 183.597656 C 334.78125 183.644531 334.808594 183.679688 334.839844 183.726562 L 337.378906 184.859375 C 337.410156 184.910156 337.4375 184.949219 337.472656 185 C 337.484375 185.402344 337.492188 185.804688 337.492188 186.210938 C 337.492188 186.613281 337.484375 187.019531 337.472656 187.421875 C 337.4375 187.46875 337.410156 187.507812 337.378906 187.558594 L 334.839844 188.691406 C 334.808594 188.738281 334.78125 188.777344 334.75 188.824219 C 334.625 190.3125 334.390625 191.777344 334.058594 193.199219 C 334.078125 193.253906 334.089844 193.296875 334.109375 193.351562 L 336.171875 195.210938 C 336.21875 195.25 336.234375 195.3125 336.21875 195.371094 C 335.996094 196.148438 335.75 196.914062 335.472656 197.667969 C 335.425781 197.703125 335.390625 197.734375 335.339844 197.769531 L 332.578125 198.0625 C 332.535156 198.097656 332.496094 198.121094 332.449219 198.15625 C 331.871094 199.527344 331.199219 200.847656 330.4375 202.105469 C 330.40625 202.15625 330.40625 202.214844 330.433594 202.265625 L 331.820312 204.671875 C 331.847656 204.722656 331.847656 204.789062 331.8125 204.839844 C 331.363281 205.507812 330.886719 206.160156 330.390625 206.796875 C 330.351562 206.84375 330.292969 206.863281 330.230469 206.851562 L 327.515625 206.277344 C 327.460938 206.292969 327.417969 206.308594 327.363281 206.328125 C 326.398438 207.445312 325.351562 208.492188 324.234375 209.457031 C 324.214844 209.511719 324.199219 209.554688 324.179688 209.609375 L 324.757812 212.324219 C 324.769531 212.386719 324.75 212.445312 324.703125 212.484375 C 324.066406 212.980469 323.414062 213.457031 322.746094 213.90625 C 322.695312 213.941406 322.628906 213.941406 322.578125 213.914062 L 320.171875 212.527344 C 320.121094 212.5 320.0625 212.5 320.011719 212.53125 C 318.753906 213.292969 317.433594 213.96875 316.0625 214.546875 C 316.011719 214.566406 315.972656 214.617188 315.96875 214.671875 L 315.675781 217.4375 C 315.671875 217.496094 315.628906 217.546875 315.574219 217.570312 C 314.820312 217.84375 314.054688 218.09375 313.277344 218.3125 C 313.21875 218.332031 313.15625 218.3125 313.117188 218.265625 L 311.257812 216.203125 C 311.203125 216.1875 311.160156 216.171875 311.105469 216.152344 C 309.679688 216.484375 308.21875 216.71875 306.730469 216.84375 C 306.683594 216.875 306.644531 216.902344 306.597656 216.9375 L 305.464844 219.472656 C 305.414062 219.503906 305.375 219.53125 305.324219 219.566406 C 304.925781 219.578125 304.519531 219.585938 304.117188 219.585938 L 304.117188 212.875 " fill-opacity="1" fill-rule="nonzero"/></g><g fill="#ffffff" fill-opacity="1"><g transform="translate(54.028877, 152.824999)"><g><path d="M 21.640625 0 L 20.15625 -5.625 L 10.421875 -5.625 L 8.90625 0 L 0 0 L 9.78125 -30.109375 L 20.59375 -30.109375 L 30.5 0 Z M 18.484375 -12.265625 L 17.1875 -17.1875 C 16.882812 -18.28125 16.515625 -19.691406 16.078125 -21.421875 C 15.648438 -23.160156 15.367188 -24.40625 15.234375 -25.15625 C 15.109375 -24.46875 14.863281 -23.320312 14.5 -21.71875 C 14.144531 -20.113281 13.34375 -16.960938 12.09375 -12.265625 Z M 18.484375 -12.265625 "/></g></g></g><g fill="#ffffff" fill-opacity="1"><g transform="translate(83.137992, 152.824999)"><g><path d="M 28.734375 -29.984375 L 28.734375 -11.9375 C 28.734375 -8.007812 27.617188 -4.96875 25.390625 -2.8125 C 23.171875 -0.664062 19.972656 0.40625 15.796875 0.40625 C 11.703125 0.40625 8.554688 -0.632812 6.359375 -2.71875 C 4.171875 -4.8125 3.078125 -7.820312 3.078125 -11.75 L 3.078125 -29.984375 L 11.21875 -29.984375 L 11.21875 -12.390625 C 11.21875 -10.265625 11.613281 -8.722656 12.40625 -7.765625 C 13.195312 -6.816406 14.367188 -6.34375 15.921875 -6.34375 C 17.566406 -6.34375 18.757812 -6.816406 19.5 -7.765625 C 20.25 -8.710938 20.625 -10.265625 20.625 -12.421875 L 20.625 -29.984375 Z M 28.734375 -29.984375 "/></g></g></g><g fill="#ffffff" fill-opacity="1"><g transform="translate(113.5391, 152.824999)"><g><path d="M 16.46875 0 L 8.375 0 L 8.375 -23.359375 L 1.046875 -23.359375 L 1.046875 -29.984375 L 23.765625 -29.984375 L 23.765625 -23.359375 L 16.46875 -23.359375 Z M 16.46875 0 "/></g></g></g><g fill="#ffffff" fill-opacity="1"><g transform="translate(136.974184, 152.824999)"><g/></g></g><g fill="#ffffff" fill-opacity="1"><g transform="translate(146.49834, 152.824999)"><g/></g></g><g fill="#ffffff" fill-opacity="1"><g transform="translate(156.022495, 152.824999)"><g/></g></g><g fill="#ffffff" fill-opacity="1"><g transform="translate(165.546651, 152.824999)"><g/></g></g><g fill="#ffffff" fill-opacity="1"><g transform="translate(175.071841, 152.824999)"><g><path d="M 25 -20.453125 C 25 -17.097656 24.007812 -14.507812 22.03125 -12.6875 C 20.0625 -10.863281 17.257812 -9.953125 13.625 -9.953125 L 11.34375 -9.953125 L 11.34375 0 L 3.234375 0 L 3.234375 -29.984375 L 13.625 -29.984375 C 17.40625 -29.984375 20.242188 -29.15625 22.140625 -27.5 C 24.046875 -25.84375 25 -23.492188 25 -20.453125 Z M 11.34375 -16.546875 L 12.8125 -16.546875 C 14.03125 -16.546875 15 -16.882812 15.71875 -17.5625 C 16.4375 -18.25 16.796875 -19.195312 16.796875 -20.40625 C 16.796875 -22.425781 15.675781 -23.4375 13.4375 -23.4375 L 11.34375 -23.4375 Z M 11.34375 -16.546875 "/></g></g></g><g fill="#ffffff" fill-opacity="1"><g transform="translate(200.222949, 152.824999)"><g><path d="M 21.640625 0 L 20.15625 -5.625 L 10.421875 -5.625 L 8.90625 0 L 0 0 L 9.78125 -30.109375 L 20.59375 -30.109375 L 30.5 0 Z M 18.484375 -12.265625 L 17.1875 -17.1875 C 16.882812 -18.28125 16.515625 -19.691406 16.078125 -21.421875 C 15.648438 -23.160156 15.367188 -24.40625 15.234375 -25.15625 C 15.109375 -24.46875 14.863281 -23.320312 14.5 -21.71875 C 14.144531 -20.113281 13.34375 -16.960938 12.09375 -12.265625 Z M 18.484375 -12.265625 "/></g></g></g><g fill="#ffffff" fill-opacity="1"><g transform="translate(229.332065, 152.824999)"><g><path d="M 11.34375 -10.90625 L 11.34375 0 L 3.234375 0 L 3.234375 -29.984375 L 13.0625 -29.984375 C 21.207031 -29.984375 25.28125 -27.03125 25.28125 -21.125 C 25.28125 -17.65625 23.585938 -14.96875 20.203125 -13.0625 L 28.9375 0 L 19.75 0 L 13.390625 -10.90625 Z M 11.34375 -17 L 12.859375 -17 C 15.691406 -17 17.109375 -18.25 17.109375 -20.75 C 17.109375 -22.8125 15.71875 -23.84375 12.9375 -23.84375 L 11.34375 -23.84375 Z M 11.34375 -17 "/></g></g></g><g fill="#ffffff" fill-opacity="1"><g transform="translate(256.369892, 152.824999)"><g><path d="M 16.46875 0 L 8.375 0 L 8.375 -23.359375 L 1.046875 -23.359375 L 1.046875 -29.984375 L 23.765625 -29.984375 L 23.765625 -23.359375 L 16.46875 -23.359375 Z M 16.46875 0 "/></g></g></g><g fill="#ffffff" fill-opacity="1"><g transform="translate(279.798344, 152.824999)"><g><path d="M 21.046875 0 L 3.234375 0 L 3.234375 -29.984375 L 21.046875 -29.984375 L 21.046875 -23.484375 L 11.34375 -23.484375 L 11.34375 -18.765625 L 20.328125 -18.765625 L 20.328125 -12.265625 L 11.34375 -12.265625 L 11.34375 -6.609375 L 21.046875 -6.609375 Z M 21.046875 0 "/></g></g></g><g fill="#ffffff" fill-opacity="1"><g transform="translate(301.46313, 152.824999)"><g><path d="M 22.84375 -9.109375 C 22.84375 -7.242188 22.367188 -5.585938 21.421875 -4.140625 C 20.484375 -2.703125 19.125 -1.582031 17.34375 -0.78125 C 15.570312 0.0078125 13.488281 0.40625 11.09375 0.40625 C 9.09375 0.40625 7.414062 0.265625 6.0625 -0.015625 C 4.71875 -0.296875 3.3125 -0.785156 1.84375 -1.484375 L 1.84375 -8.703125 C 3.382812 -7.898438 4.988281 -7.273438 6.65625 -6.828125 C 8.332031 -6.390625 9.867188 -6.171875 11.265625 -6.171875 C 12.460938 -6.171875 13.34375 -6.378906 13.90625 -6.796875 C 14.46875 -7.210938 14.75 -7.75 14.75 -8.40625 C 14.75 -8.820312 14.632812 -9.179688 14.40625 -9.484375 C 14.175781 -9.796875 13.8125 -10.109375 13.3125 -10.421875 C 12.820312 -10.734375 11.492188 -11.375 9.328125 -12.34375 C 7.378906 -13.226562 5.914062 -14.085938 4.9375 -14.921875 C 3.957031 -15.765625 3.226562 -16.722656 2.75 -17.796875 C 2.28125 -18.878906 2.046875 -20.160156 2.046875 -21.640625 C 2.046875 -24.398438 3.050781 -26.550781 5.0625 -28.09375 C 7.070312 -29.632812 9.832031 -30.40625 13.34375 -30.40625 C 16.445312 -30.40625 19.613281 -29.691406 22.84375 -28.265625 L 20.359375 -22 C 17.554688 -23.289062 15.140625 -23.9375 13.109375 -23.9375 C 12.054688 -23.9375 11.289062 -23.75 10.8125 -23.375 C 10.332031 -23.007812 10.09375 -22.550781 10.09375 -22 C 10.09375 -21.414062 10.394531 -20.890625 11 -20.421875 C 11.613281 -19.960938 13.265625 -19.117188 15.953125 -17.890625 C 18.535156 -16.722656 20.328125 -15.472656 21.328125 -14.140625 C 22.335938 -12.804688 22.84375 -11.128906 22.84375 -9.109375 Z M 22.84375 -9.109375 "/></g></g></g><g fill="#ffffff" fill-opacity="1"><g transform="translate(106.013248, 194.824996)"><g><path d="M 15.28125 -17.5625 L 28.21875 -17.5625 L 28.21875 -1.390625 C 24.707031 -0.191406 20.84375 0.40625 16.625 0.40625 C 12.007812 0.40625 8.441406 -0.929688 5.921875 -3.609375 C 3.398438 -6.285156 2.140625 -10.109375 2.140625 -15.078125 C 2.140625 -19.910156 3.519531 -23.671875 6.28125 -26.359375 C 9.039062 -29.054688 12.910156 -30.40625 17.890625 -30.40625 C 19.773438 -30.40625 21.550781 -30.226562 23.21875 -29.875 C 24.894531 -29.519531 26.359375 -29.070312 27.609375 -28.53125 L 25.046875 -22.171875 C 22.878906 -23.234375 20.503906 -23.765625 17.921875 -23.765625 C 15.554688 -23.765625 13.726562 -22.992188 12.4375 -21.453125 C 11.144531 -19.921875 10.5 -17.726562 10.5 -14.875 C 10.5 -12.070312 11.082031 -9.929688 12.25 -8.453125 C 13.414062 -6.984375 15.101562 -6.25 17.3125 -6.25 C 18.507812 -6.25 19.613281 -6.367188 20.625 -6.609375 L 20.625 -11.296875 L 15.28125 -11.296875 Z M 15.28125 -17.5625 "/></g></g></g><g fill="#ffffff" fill-opacity="1"><g transform="translate(135.71709, 194.824996)"><g><path d="M 21.640625 0 L 20.15625 -5.625 L 10.421875 -5.625 L 8.90625 0 L 0 0 L 9.78125 -30.109375 L 20.59375 -30.109375 L 30.5 0 Z M 18.484375 -12.265625 L 17.1875 -17.1875 C 16.882812 -18.28125 16.515625 -19.691406 16.078125 -21.421875 C 15.648438 -23.160156 15.367188 -24.40625 15.234375 -25.15625 C 15.109375 -24.46875 14.863281 -23.320312 14.5 -21.71875 C 14.144531 -20.113281 13.34375 -16.960938 12.09375 -12.265625 Z M 18.484375 -12.265625 "/></g></g></g><g fill="#ffffff" fill-opacity="1"><g transform="translate(164.826206, 194.824996)"><g><path d="M 11.34375 -10.90625 L 11.34375 0 L 3.234375 0 L 3.234375 -29.984375 L 13.0625 -29.984375 C 21.207031 -29.984375 25.28125 -27.03125 25.28125 -21.125 C 25.28125 -17.65625 23.585938 -14.96875 20.203125 -13.0625 L 28.9375 0 L 19.75 0 L 13.390625 -10.90625 Z M 11.34375 -17 L 12.859375 -17 C 15.691406 -17 17.109375 -18.25 17.109375 -20.75 C 17.109375 -22.8125 15.71875 -23.84375 12.9375 -23.84375 L 11.34375 -23.84375 Z M 11.34375 -17 "/></g></g></g><g fill="#ffffff" fill-opacity="1"><g transform="translate(191.864033, 194.824996)"><g><path d="M 21.640625 0 L 20.15625 -5.625 L 10.421875 -5.625 L 8.90625 0 L 0 0 L 9.78125 -30.109375 L 20.59375 -30.109375 L 30.5 0 Z M 18.484375 -12.265625 L 17.1875 -17.1875 C 16.882812 -18.28125 16.515625 -19.691406 16.078125 -21.421875 C 15.648438 -23.160156 15.367188 -24.40625 15.234375 -25.15625 C 15.109375 -24.46875 14.863281 -23.320312 14.5 -21.71875 C 14.144531 -20.113281 13.34375 -16.960938 12.09375 -12.265625 Z M 18.484375 -12.265625 "/></g></g></g><g fill="#ffffff" fill-opacity="1"><g transform="translate(220.973148, 194.824996)"><g><path d="M 15.28125 -17.5625 L 28.21875 -17.5625 L 28.21875 -1.390625 C 24.707031 -0.191406 20.84375 0.40625 16.625 0.40625 C 12.007812 0.40625 8.441406 -0.929688 5.921875 -3.609375 C 3.398438 -6.285156 2.140625 -10.109375 2.140625 -15.078125 C 2.140625 -19.910156 3.519531 -23.671875 6.28125 -26.359375 C 9.039062 -29.054688 12.910156 -30.40625 17.890625 -30.40625 C 19.773438 -30.40625 21.550781 -30.226562 23.21875 -29.875 C 24.894531 -29.519531 26.359375 -29.070312 27.609375 -28.53125 L 25.046875 -22.171875 C 22.878906 -23.234375 20.503906 -23.765625 17.921875 -23.765625 C 15.554688 -23.765625 13.726562 -22.992188 12.4375 -21.453125 C 11.144531 -19.921875 10.5 -17.726562 10.5 -14.875 C 10.5 -12.070312 11.082031 -9.929688 12.25 -8.453125 C 13.414062 -6.984375 15.101562 -6.25 17.3125 -6.25 C 18.507812 -6.25 19.613281 -6.367188 20.625 -6.609375 L 20.625 -11.296875 L 15.28125 -11.296875 Z M 15.28125 -17.5625 "/></g></g></g><g fill="#ffffff" fill-opacity="1"><g transform="translate(250.676996, 194.824996)"><g><path d="M 21.046875 0 L 3.234375 0 L 3.234375 -29.984375 L 21.046875 -29.984375 L 21.046875 -23.484375 L 11.34375 -23.484375 L 11.34375 -18.765625 L 20.328125 -18.765625 L 20.328125 -12.265625 L 11.34375 -12.265625 L 11.34375 -6.609375 L 21.046875 -6.609375 Z M 21.046875 0 "/></g></g></g><path fill="#ffffff" d="M 145.140625 132.394531 C 145.140625 132.394531 144.757812 134.414062 146.058594 134.703125 C 147.359375 134.992188 149.957031 134.222656 150.292969 135.1875 C 150.292969 135.1875 151.34375 135.304688 152.597656 134.714844 L 151.792969 137.355469 C 151.792969 137.355469 150.246094 137.449219 149.765625 137.6875 C 149.765625 137.6875 149.703125 138.121094 148.84375 138.21875 C 147.984375 138.3125 145.042969 139.265625 144.445312 140.234375 C 144.445312 140.234375 142.300781 137.78125 145.140625 132.394531 " fill-opacity="1" fill-rule="nonzero"/><path stroke-linecap="round" transform="matrix(0.00199343, 0, 0, -0.00199343, 135.364215, 158.514364)" fill="none" stroke-linejoin="round" d="M 4904.32373 13102.980856 C 4904.32373 13102.980856 4712.286327 12089.885574 5364.821586 11944.877739 C 6017.356844 11799.869904 7320.467797 12185.904276 7488.990416 11701.891637 C 7488.990416 11701.891637 8016.113493 11643.104676 8645.133968 11938.999043 L 8241.463507 10614.332872 C 8241.463507 10614.332872 7465.475632 10567.303304 7224.449095 10447.769818 C 7224.449095 10447.769818 7193.096049 10230.258065 6761.991674 10181.268932 C 6330.887299 10134.239363 4855.334597 9656.10542 4555.5211 9170.133215 C 4555.5211 9170.133215 3479.719727 10400.74025 4904.32373 13102.980856 Z M 4904.32373 13102.980856 " stroke="#0c0d21" stroke-width="99.779999" stroke-opacity="1" stroke-miterlimit="10"/><path fill="#ffffff" d="M 167.875 132.394531 C 167.875 132.394531 168.253906 134.417969 166.957031 134.703125 C 165.65625 134.992188 163.058594 134.222656 162.722656 135.1875 C 162.722656 135.1875 161.671875 135.304688 160.414062 134.714844 L 161.222656 137.355469 C 161.222656 137.355469 162.769531 137.449219 163.25 137.6875 C 163.25 137.6875 163.308594 138.121094 164.171875 138.21875 C 165.03125 138.3125 167.972656 139.265625 168.570312 140.234375 C 168.570312 140.234375 170.714844 137.78125 167.875 132.394531 " fill-opacity="1" fill-rule="nonzero"/><path stroke-linecap="round" transform="matrix(0.00216885, 0, 0, -0.00216885, 135.364215, 158.514364)" fill="none" stroke-linejoin="round" d="M 14989.885362 12043.18186 C 14989.885362 12043.18186 15166.390342 11112.028037 14566.633624 10978.748767 C 13966.876906 10845.469496 12769.164542 11200.280527 12614.272416 10755.415935 C 12614.272416 10755.415935 12129.784257 10701.383798 11549.839323 10973.345553 L 11922.661066 9755.821405 C 11922.661066 9755.821405 12635.885271 9712.595696 12857.417032 9602.730351 C 12857.417032 9602.730351 12886.234171 9402.811445 13282.469841 9357.784664 C 13678.70551 9314.558955 15034.912142 8875.097576 15310.47604 8428.431912 C 15310.47604 8428.431912 16299.264142 9559.504642 14989.885362 12043.18186 Z M 14989.885362 12043.18186 " stroke="#0c0d21" stroke-width="91.710999" stroke-opacity="1" stroke-miterlimit="10"/><path fill="#ffffff" d="M 159.882812 144.761719 C 159.882812 144.761719 158.242188 142.71875 159.542969 140.96875 L 156.507812 140.234375 L 153.472656 140.96875 C 154.773438 142.71875 153.132812 144.761719 153.132812 144.761719 C 152.460938 145.339844 152.363281 146.542969 152.363281 146.542969 L 152.363281 149.429688 C 154.382812 150.296875 156.507812 150.152344 156.507812 150.152344 C 156.507812 150.152344 158.632812 150.296875 160.652344 149.429688 L 160.652344 146.542969 C 160.652344 146.542969 160.554688 145.339844 159.882812 144.761719 " fill-opacity="1" fill-rule="nonzero"/><path stroke-linecap="round" transform="matrix(0.00199343, 0, 0, -0.00199343, 135.364215, 158.514364)" fill="none" stroke-linejoin="round" d="M 12299.72333 6898.996984 C 12299.72333 6898.996984 11476.705886 7923.849658 12129.241145 8801.734931 L 10606.658875 9170.133215 L 9084.076604 8801.734931 C 9736.611863 7923.849658 8913.594419 6898.996984 8913.594419 6898.996984 C 8576.549181 6608.981314 8527.560047 6005.435189 8527.560047 6005.435189 L 8527.560047 4557.316401 C 9540.655329 4122.292895 10606.658875 4194.796813 10606.658875 4194.796813 C 10606.658875 4194.796813 11672.66242 4122.292895 12685.757702 4557.316401 L 12685.757702 6005.435189 C 12685.757702 6005.435189 12636.768569 6608.981314 12299.72333 6898.996984 Z M 12299.72333 6898.996984 " stroke="#0c0d21" stroke-width="99.779999" stroke-opacity="1" stroke-miterlimit="10"/><path fill="#ffffff" d="M 161.222656 137.355469 C 161.222656 139.960938 159.113281 142.074219 156.507812 142.074219 C 153.902344 142.074219 151.792969 139.960938 151.792969 137.355469 C 151.792969 134.753906 153.902344 132.640625 156.507812 132.640625 C 159.113281 132.640625 161.222656 134.753906 161.222656 137.355469 " fill-opacity="1" fill-rule="nonzero"/><path stroke-linecap="round" transform="matrix(0.00199343, 0, 0, -0.00199343, 135.364215, 158.514364)" fill="none" stroke-linejoin="round" d="M 12971.854242 10614.332872 C 12971.854242 9307.302789 11913.688957 8247.177939 10606.658875 8247.177939 C 9299.628792 8247.177939 8241.463507 9307.302789 8241.463507 10614.332872 C 8241.463507 11919.40339 9299.628792 12979.528239 10606.658875 12979.528239 C 11913.688957 12979.528239 12971.854242 11919.40339 12971.854242 10614.332872 Z M 12971.854242 10614.332872 " stroke="#0c0d21" stroke-width="99.779999" stroke-opacity="1" stroke-miterlimit="10"/><path fill="#ffffff" d="M 156.507812 139.507812 C 155.320312 139.507812 154.359375 138.542969 154.359375 137.355469 C 154.359375 136.171875 155.320312 135.207031 156.507812 135.207031 C 157.695312 135.207031 158.65625 136.171875 158.65625 137.355469 C 158.65625 138.542969 157.695312 139.507812 156.507812 139.507812 Z M 156.507812 134.917969 C 155.160156 134.917969 154.070312 136.011719 154.070312 137.355469 C 154.070312 138.703125 155.160156 139.796875 156.507812 139.796875 C 157.855469 139.796875 158.945312 138.703125 158.945312 137.355469 C 158.945312 136.011719 157.855469 134.917969 156.507812 134.917969 " fill-opacity="1" fill-rule="nonzero"/><path stroke-linecap="round" transform="matrix(0.00199343, 0, 0, -0.00199343, 135.364215, 158.514364)" fill="none" stroke-linejoin="round" d="M 10606.658875 9534.612369 C 10010.951011 9534.612369 9528.897937 10018.625008 9528.897937 10614.332872 C 9528.897937 11208.081171 10010.951011 11692.09381 10606.658875 11692.09381 C 11202.366738 11692.09381 11684.419813 11208.081171 11684.419813 10614.332872 C 11684.419813 10018.625008 11202.366738 9534.612369 10606.658875 9534.612369 Z M 10606.658875 11837.101645 C 9930.608832 11837.101645 9383.890101 11288.42335 9383.890101 10614.332872 C 9383.890101 9938.282829 9930.608832 9389.604534 10606.658875 9389.604534 C 11282.708917 9389.604534 11829.427648 9938.282829 11829.427648 10614.332872 C 11829.427648 11288.42335 11282.708917 11837.101645 10606.658875 11837.101645 Z M 10606.658875 11837.101645 " stroke="#0c0d21" stroke-width="99.779999" stroke-opacity="1" stroke-miterlimit="10"/><g clip-path="url(#d0eae384ae)"><path fill="#ffffff" d="M 156.507812 149.757812 C 149.660156 149.757812 144.109375 144.207031 144.109375 137.355469 C 144.109375 130.507812 149.660156 124.957031 156.507812 124.957031 C 163.355469 124.957031 168.90625 130.507812 168.90625 137.355469 C 168.90625 144.207031 163.355469 149.757812 156.507812 149.757812 Z M 156.507812 122 C 148.027344 122 141.148438 128.875 141.148438 137.355469 C 141.148438 145.839844 148.027344 152.714844 156.507812 152.714844 C 164.988281 152.714844 171.867188 145.839844 171.867188 137.355469 C 171.867188 128.875 164.988281 122 156.507812 122 " fill-opacity="1" fill-rule="nonzero"/></g><g clip-path="url(#b162f37d01)"><path stroke-linecap="round" transform="matrix(0.00224021, 0, 0, -0.00224021, 135.364215, 158.514364)" fill="none" stroke-linejoin="round" d="M 9438.210505 3908.803861 C 6381.511163 3908.803861 3903.71894 6386.596083 3903.71894 9445.039122 C 3903.71894 12501.738464 6381.511163 14979.530687 9438.210505 14979.530687 C 12494.909848 14979.530687 14974.445767 12501.738464 14974.445767 9445.039122 C 14974.445767 6386.596083 12494.909848 3908.803861 9438.210505 3908.803861 Z M 9438.210505 16299.508669 C 5652.646174 16299.508669 2581.997262 13230.603453 2581.997262 9445.039122 C 2581.997262 5657.731094 5652.646174 2588.825879 9438.210505 2588.825879 C 13225.518533 2588.825879 16294.423749 5657.731094 16294.423749 9445.039122 C 16294.423749 13230.603453 13225.518533 16299.508669 9438.210505 16299.508669 Z M 9438.210505 16299.508669 " stroke="#0c0d21" stroke-width="88.790001" stroke-opacity="1" stroke-miterlimit="10"/></g><g clip-path="url(#13c311d78e)"><path fill="#ffffff" d="M 156.507812 151.488281 C 148.703125 151.488281 142.378906 145.160156 142.378906 137.355469 C 142.378906 129.554688 148.703125 123.226562 156.507812 123.226562 C 164.3125 123.226562 170.636719 129.554688 170.636719 137.355469 C 170.636719 145.160156 164.3125 151.488281 156.507812 151.488281 Z M 156.507812 122 C 148.027344 122 141.148438 128.875 141.148438 137.355469 C 141.148438 145.839844 148.027344 152.714844 156.507812 152.714844 C 164.988281 152.714844 171.867188 145.839844 171.867188 137.355469 C 171.867188 128.875 164.988281 122 156.507812 122 " fill-opacity="1" fill-rule="nonzero"/></g><g clip-path="url(#e79f04b81a)"><path stroke-linecap="round" transform="matrix(0.00224021, 0, 0, -0.00224021, 135.364215, 158.514364)" fill="none" stroke-linejoin="round" d="M 9438.210505 3136.346468 C 5954.305607 3136.346468 3131.261548 5961.134224 3131.261548 9445.039122 C 3131.261548 12928.94402 5954.305607 15751.988079 9438.210505 15751.988079 C 12922.115404 15751.988079 15746.903159 12928.94402 15746.903159 9445.039122 C 15746.903159 5961.134224 12922.115404 3136.346468 9438.210505 3136.346468 Z M 9438.210505 16299.508669 C 5652.646174 16299.508669 2581.997262 13230.603453 2581.997262 9445.039122 C 2581.997262 5657.731094 5652.646174 2588.825879 9438.210505 2588.825879 C 13225.518533 2588.825879 16294.423749 5657.731094 16294.423749 9445.039122 C 16294.423749 13230.603453 13225.518533 16299.508669 9438.210505 16299.508669 Z M 9438.210505 16299.508669 " stroke="#0c0d21" stroke-width="88.790001" stroke-opacity="1" stroke-miterlimit="10"/></g></svg>